<svg width="313" height="345" viewBox="0 0 313 345" fill="none" xmlns="http://www.w3.org/2000/svg">
<path d="M72.6645 120.74C72.6645 118.913 73.6608 117.231 75.2633 116.354L124.551 89.3688C127.883 87.5445 131.952 89.9557 131.952 93.7545V335.745C131.952 339.721 127.537 342.106 124.211 339.927L77.1832 309.107C74.3633 307.259 72.6645 304.115 72.6645 300.743V120.74Z" fill="#F47200"/>
<path d="M1.33398 89.0077C1.33398 85.037 5.73957 82.6506 9.06541 84.8197L58.353 116.965C59.7683 117.888 60.6216 119.464 60.6216 121.153V287.716C60.6216 291.692 56.2062 294.077 52.881 291.898L5.85268 261.078C3.03282 259.23 1.33398 256.085 1.33398 252.714V89.0077Z" fill="#578EE0"/>
<path d="M134.126 70.9202C135.619 70.1004 136.527 68.5648 136.527 66.8607L136.527 9.1823C136.527 5.2543 132.019 2.67543 128.649 4.67553L19.0209 69.7386C15.9324 71.5716 16.0215 76.008 19.1879 78.0469L60.8017 104.843C64.0656 106.944 68.1718 107.144 71.4222 105.359L134.126 70.9202Z" fill="#F47200"/>
<path d="M149.27 70.9202C147.777 70.1004 146.869 68.5648 146.869 66.8607L146.869 9.1823C146.869 5.2543 151.377 2.67543 154.747 4.67553L264.375 69.7386C267.464 71.5716 267.375 76.008 264.208 78.0469L222.595 104.843C219.331 106.944 215.224 107.144 211.974 105.359L149.27 70.9202Z" fill="#F47200"/>
<path d="M149.044 278.679C147.682 279.528 146.869 280.995 146.869 282.606L146.869 335.233C146.869 339.161 151.377 341.74 154.747 339.74L264.375 274.677C267.464 272.844 267.375 268.407 264.208 266.368L222.918 239.781C219.487 237.572 215.144 237.473 211.845 239.53L149.044 278.679Z" fill="#F47200"/>
<path d="M219.42 224.036C219.42 225.475 220.095 226.8 221.262 227.652L263.936 258.809C267.277 261.248 272.356 258.695 272.356 254.576L272.356 157.86C272.356 155.298 270.252 153.303 267.55 153.303L222.475 153.303C216.564 153.303 211.563 158.045 211.563 163.651L211.563 180.658C211.563 182.753 213.282 184.383 215.491 184.383V184.383C217.7 184.383 219.42 186.014 219.42 188.108L219.42 224.036Z" fill="#F47200"/>
<path d="M206.988 184.454C206.988 185.955 206.314 187.376 205.151 188.326L155.864 228.592C152.598 231.26 147.7 228.937 147.7 224.72V94.0311C147.7 90.3002 151.639 87.8836 154.965 89.5734L201.517 113.223C204.874 114.929 206.988 118.374 206.988 122.139V184.454Z" fill="#578EE0"/>
</svg>
