<svg width="2615" height="273" viewBox="0 0 2615 273" fill="none" xmlns="http://www.w3.org/2000/svg">
<path d="M53.8599 107.355C53.8599 105.529 54.8554 103.848 56.4567 102.971L90.4015 84.3651C93.7336 82.5387 97.8047 84.9499 97.8047 88.7497V263.74C97.8047 267.716 93.387 270.102 90.062 267.92L58.3744 247.131C55.557 245.282 53.8599 242.139 53.8599 238.77V107.355Z" fill="#F47200"/>
<path d="M0.988772 85.4331C0.988772 81.4613 5.3966 79.075 8.7223 81.2465L42.6671 103.41C44.0812 104.333 44.9336 105.908 44.9336 107.596V228.101C44.9336 232.077 40.5159 234.463 37.1908 232.281L5.50326 211.492C2.68583 209.643 0.988772 206.5 0.988772 203.131V85.4331Z" fill="#578EE0"/>
<path d="M98.7952 69.9663C100.288 69.1457 101.196 67.6094 101.196 65.9051L101.196 26.1841C101.196 22.2554 96.688 19.6781 93.3184 21.6802L15.8071 67.7329C12.7204 69.5669 12.8079 74.0013 15.971 76.0403L43.6886 93.9078C46.953 96.012 51.062 96.2113 54.3142 94.4232L98.7952 69.9663Z" fill="#F47200"/>
<path d="M111.262 69.9663C109.77 69.1457 108.862 67.6094 108.862 65.9051L108.862 26.1841C108.862 22.2554 113.369 19.6781 116.739 21.6802L194.25 67.7329C197.337 69.5669 197.249 74.0013 194.086 76.0403L166.369 93.9078C163.104 96.012 158.995 96.2113 155.743 94.4232L111.262 69.9663Z" fill="#F47200"/>
<path d="M111.036 223.437C109.674 224.287 108.862 225.754 108.862 227.366L108.862 263.382C108.862 267.311 113.369 269.888 116.739 267.886L194.25 221.833C197.337 219.999 197.249 215.565 194.086 213.526L166.692 195.867C163.261 193.655 158.915 193.557 155.614 195.617L111.036 223.437Z" fill="#F47200"/>
<path d="M162.637 182.654C162.637 184.094 163.312 185.42 164.479 186.273L193.456 207.452C196.796 209.894 201.874 207.342 201.874 203.222L201.874 135.316C201.874 132.752 199.769 130.755 197.066 130.755L167.718 130.755C161.81 130.755 156.813 135.495 156.813 141.1L156.813 151.055C156.813 152.608 158.088 153.818 159.725 153.818C161.362 153.818 162.637 155.027 162.637 156.58L162.637 182.654Z" fill="#F47200"/>
<path d="M153.422 153.26C153.422 154.76 152.749 156.181 151.588 157.13L117.643 184.893C114.378 187.563 109.478 185.24 109.478 181.022V88.8799C109.478 85.148 113.418 82.7314 116.744 84.4232L147.956 100.297C151.31 102.003 153.422 105.447 153.422 109.21V153.26Z" fill="#578EE0"/>
<path d="M336 69.2794C336 67.4837 336.963 65.8258 338.523 64.9361L376.523 43.2643C379.856 41.3633 384 43.7703 384 47.6076V248.533C384 252.551 379.5 254.928 376.181 252.662L340.362 228.211C337.633 226.347 336 223.256 336 219.952V69.2794Z" fill="#F47200"/>
<path d="M449 116.603C449 118.776 447.596 120.7 445.527 121.364L409.527 132.907C406.3 133.942 403 131.535 403 128.146V24.2747C403 20.7673 406.517 18.3499 409.792 19.6067L442.583 32.1925C446.449 33.6761 449 37.3882 449 41.5285V116.603Z" fill="#578EE0"/>
<path d="M1990.83 27.5454H2036.95L2092.1 127.283H2094.31L2149.46 27.5454H2195.58L2113.57 168.895V253H2072.84V168.895L1990.83 27.5454ZM2208.75 253H2165.16L2244.53 27.5454H2294.95L2374.43 253H2330.84L2270.62 73.7812H2268.86L2208.75 253ZM2210.18 164.602H2329.08V197.407H2210.18V164.602ZM2567.7 27.5454V253H2531.37L2425.14 99.4311H2423.27V253H2382.43V27.5454H2418.98L2525.1 181.224H2527.08V27.5454H2567.7Z" fill="black"/>
<path d="M500.19 252H456.596L535.967 26.5454H586.386L665.868 252H622.274L562.058 72.7812H560.296L500.19 252ZM501.621 163.602H620.513V196.407H501.621V163.602ZM673.863 252V26.5454H758.409C775.729 26.5454 790.26 29.5544 802.003 35.5724C813.818 41.5904 822.735 50.0303 828.753 60.892C834.845 71.6804 837.89 84.2668 837.89 98.6513C837.89 113.109 834.808 125.659 828.643 136.3C822.552 146.869 813.562 155.052 801.672 160.849C789.783 166.574 775.178 169.436 757.858 169.436H697.642V135.53H752.354C762.482 135.53 770.775 134.135 777.233 131.347C783.692 128.484 788.462 124.338 791.545 118.907C794.7 113.403 796.278 106.651 796.278 98.6513C796.278 90.6517 794.7 83.8265 791.545 78.1754C788.389 72.451 783.582 68.121 777.123 65.1854C770.665 62.1764 762.335 60.6719 752.134 60.6719H714.705V252H673.863ZM790.334 149.841L846.147 252H800.571L745.749 149.841H790.334ZM894.626 26.5454V252H853.784V26.5454H894.626ZM917.153 252V26.5454H957.994V130.136H960.747L1048.7 26.5454H1098.57L1011.39 127.714L1099.34 252H1050.25L982.984 155.345L957.994 184.848V252H917.153ZM1226.56 88.5234C1225.53 78.9093 1221.2 71.4235 1213.57 66.066C1206.01 60.7086 1196.18 58.0298 1184.07 58.0298C1175.56 58.0298 1168.25 59.3142 1162.16 61.8828C1156.07 64.4515 1151.41 67.9375 1148.18 72.3409C1144.95 76.7443 1143.3 81.7715 1143.23 87.4226C1143.23 92.1196 1144.29 96.1927 1146.42 99.642C1148.62 103.091 1151.59 106.027 1155.34 108.449C1159.08 110.797 1163.23 112.779 1167.78 114.393C1172.33 116.008 1176.91 117.366 1181.54 118.467L1202.67 123.751C1211.19 125.732 1219.37 128.411 1227.22 131.787C1235.15 135.163 1242.23 139.42 1248.47 144.557C1254.78 149.694 1259.77 155.896 1263.44 163.161C1267.11 170.427 1268.94 178.94 1268.94 188.701C1268.94 201.911 1265.57 213.544 1258.82 223.598C1252.06 233.579 1242.3 241.395 1229.53 247.046C1216.84 252.624 1201.46 255.413 1183.41 255.413C1165.87 255.413 1150.64 252.697 1137.72 247.266C1124.88 241.835 1114.83 233.909 1107.56 223.488C1100.37 213.067 1096.48 200.37 1095.89 185.398H1136.07C1136.66 193.251 1139.08 199.783 1143.34 204.994C1147.59 210.204 1153.13 214.094 1159.96 216.663C1166.86 219.231 1174.56 220.516 1183.08 220.516C1191.96 220.516 1199.74 219.195 1206.42 216.553C1213.17 213.837 1218.45 210.094 1222.27 205.324C1226.08 200.48 1228.03 194.829 1228.1 188.371C1228.03 182.5 1226.3 177.656 1222.93 173.839C1219.55 169.95 1214.82 166.721 1208.73 164.152C1202.71 161.51 1195.66 159.161 1187.59 157.107L1161.94 150.501C1143.37 145.731 1128.7 138.502 1117.91 128.815C1107.19 119.054 1101.84 106.1 1101.84 89.9545C1101.84 76.6709 1105.43 65.0386 1112.62 55.0575C1119.89 45.0765 1129.76 37.3338 1142.24 31.8295C1154.71 26.2519 1168.84 23.4631 1184.62 23.4631C1200.62 23.4631 1214.64 26.2519 1226.67 31.8295C1238.78 37.3338 1248.29 45.0031 1255.18 54.8373C1262.08 64.5982 1265.64 75.8269 1265.86 88.5234H1226.56ZM1283.66 252V26.5454H1324.5V121.989H1428.97V26.5454H1469.92V252H1428.97V156.226H1324.5V252H1283.66ZM1521.59 252H1478L1557.37 26.5454H1607.79L1687.27 252H1643.68L1583.46 72.7812H1581.7L1521.59 252ZM1523.02 163.602H1641.91V196.407H1523.02V163.602Z" fill="black"/>
<path d="M1834.83 72.4876C1834.84 71.1432 1834.31 69.8512 1833.36 68.9034L1801.8 37.5446C1798.66 34.4252 1793.32 36.6192 1793.28 41.0438L1791.94 188.639C1791.91 192.743 1796.56 195.143 1799.88 192.735L1830.05 170.869C1832.62 169.004 1834.15 166.026 1834.18 162.848L1834.83 72.4876Z" fill="#578EE0"/>
<path d="M1921.23 67.6206C1922.26 67.6206 1923.27 67.2988 1924.12 66.6997L1962.46 39.6141C1966.45 36.7931 1964.51 30.5221 1959.64 30.5221L1810.38 30.5221C1805.93 30.5221 1803.66 35.934 1806.8 39.0823L1832.38 64.7151C1834.24 66.5763 1836.76 67.6206 1839.4 67.6206L1921.23 67.6206Z" fill="#F47200"/>
<path d="M1838.06 169.236C1836.94 169.236 1835.85 169.612 1834.97 170.303L1801.38 196.678C1797.64 199.61 1799.72 205.611 1804.47 205.611L1855.91 205.611C1857.22 205.611 1858.48 205.097 1859.41 204.18L1877.55 186.375C1883.95 180.103 1879.5 169.236 1870.55 169.236L1838.06 169.236Z" fill="#F47200"/>
<path d="M1944.73 95.0312C1946.12 95.0207 1947.44 95.5842 1948.4 96.5876L1976.19 125.859C1979.2 129.027 1976.98 134.259 1972.61 134.303L1860.98 135.408C1856.73 135.45 1854.37 130.504 1857.08 127.225L1880.3 99.0988C1882.19 96.8178 1884.98 95.4872 1887.94 95.4646L1944.73 95.0312Z" fill="#F47200"/>
<path d="M1923.95 138.83C1924.88 137.832 1926.17 137.266 1927.51 137.262L1971.66 137.144C1976.01 137.133 1978.26 142.457 1975.26 145.683L1875.92 252.823C1873.15 255.815 1868.22 254.327 1867.48 250.271L1860.61 212.99C1860.02 209.794 1860.97 206.506 1863.16 204.152L1923.95 138.83Z" fill="#578EE0"/>
</svg>
