<svg width="2279" height="260" viewBox="0 0 2279 260" fill="none" xmlns="http://www.w3.org/2000/svg">
<path d="M0 69.2794C0 67.4837 0.96303 65.8258 2.52296 64.9361L40.523 43.2643C43.8562 41.3633 48 43.7703 48 47.6076V248.533C48 252.551 43.4998 254.928 40.181 252.662L4.36196 228.211C1.63262 226.347 0 223.256 0 219.952V69.2794Z" fill="#F47200"/>
<path d="M113 116.603C113 118.776 111.596 120.7 109.527 121.364L73.5267 132.907C70.2998 133.942 67 131.535 67 128.146V24.2747C67 20.7673 70.5171 18.3499 73.7916 19.6067L106.583 32.1925C110.449 33.6761 113 37.3882 113 41.5285V116.603Z" fill="#578EE0"/>
<path d="M1654.83 27.5454H1700.95L1756.1 127.283H1758.31L1813.46 27.5454H1859.58L1777.57 168.895V253H1736.84V168.895L1654.83 27.5454ZM1872.75 253H1829.16L1908.53 27.5454H1958.95L2038.43 253H1994.84L1934.62 73.7812H1932.86L1872.75 253ZM1874.18 164.602H1993.08V197.407H1874.18V164.602ZM2231.7 27.5454V253H2195.37L2089.14 99.4311H2087.27V253H2046.43V27.5454H2082.98L2189.1 181.224H2191.08V27.5454H2231.7Z" fill="black"/>
<path d="M164.19 252H120.596L199.967 26.5454H250.386L329.868 252H286.274L226.058 72.7812H224.296L164.19 252ZM165.621 163.602H284.513V196.407H165.621V163.602ZM337.863 252V26.5454H422.409C439.729 26.5454 454.26 29.5544 466.003 35.5724C477.818 41.5904 486.735 50.0303 492.753 60.892C498.845 71.6804 501.89 84.2668 501.89 98.6513C501.89 113.109 498.808 125.659 492.643 136.3C486.552 146.869 477.562 155.052 465.672 160.849C453.783 166.574 439.178 169.436 421.858 169.436H361.642V135.53H416.354C426.482 135.53 434.775 134.135 441.233 131.347C447.692 128.484 452.462 124.338 455.545 118.907C458.7 113.403 460.278 106.651 460.278 98.6513C460.278 90.6517 458.7 83.8265 455.545 78.1754C452.389 72.451 447.582 68.121 441.123 65.1854C434.665 62.1764 426.335 60.6719 416.134 60.6719H378.705V252H337.863ZM454.334 149.841L510.147 252H464.571L409.749 149.841H454.334ZM558.626 26.5454V252H517.784V26.5454H558.626ZM581.153 252V26.5454H621.994V130.136H624.747L712.705 26.5454H762.573L675.386 127.714L763.344 252H714.246L646.984 155.345L621.994 184.848V252H581.153ZM890.562 88.5234C889.534 78.9093 885.204 71.4235 877.572 66.066C870.012 60.7086 860.178 58.0298 848.069 58.0298C839.556 58.0298 832.253 59.3142 826.162 61.8828C820.07 64.4515 815.41 67.9375 812.181 72.3409C808.952 76.7443 807.301 81.7715 807.227 87.4226C807.227 92.1196 808.291 96.1927 810.42 99.642C812.621 103.091 815.594 106.027 819.337 108.449C823.079 110.797 827.226 112.779 831.776 114.393C836.326 116.008 840.913 117.366 845.537 118.467L866.673 123.751C875.186 125.732 883.369 128.411 891.222 131.787C899.148 135.163 906.23 139.42 912.469 144.557C918.78 149.694 923.771 155.896 927.44 163.161C931.11 170.427 932.945 178.94 932.945 188.701C932.945 201.911 929.569 213.544 922.817 223.598C916.065 233.579 906.304 241.395 893.534 247.046C880.838 252.624 865.462 255.413 847.408 255.413C829.868 255.413 814.64 252.697 801.723 247.266C788.88 241.835 778.825 233.909 771.56 223.488C764.367 213.067 760.478 200.37 759.891 185.398H800.072C800.659 193.251 803.081 199.783 807.337 204.994C811.594 210.204 817.135 214.094 823.96 216.663C830.859 219.231 838.565 220.516 847.078 220.516C855.958 220.516 863.738 219.195 870.416 216.553C877.168 213.837 882.452 210.094 886.268 205.324C890.085 200.48 892.03 194.829 892.103 188.371C892.03 182.5 890.305 177.656 886.929 173.839C883.553 169.95 878.819 166.721 872.728 164.152C866.71 161.51 859.664 159.161 851.592 157.107L825.942 150.501C807.374 145.731 792.696 138.502 781.908 128.815C771.193 119.054 765.835 106.1 765.835 89.9545C765.835 76.6709 769.431 65.0386 776.623 55.0575C783.889 45.0765 793.76 37.3338 806.236 31.8295C818.713 26.2519 832.84 23.4631 848.619 23.4631C864.618 23.4631 878.636 26.2519 890.672 31.8295C902.781 37.3338 912.285 45.0031 919.184 54.8373C926.083 64.5982 929.642 75.8269 929.862 88.5234H890.562ZM947.655 252V26.5454H988.497V121.989H1092.97V26.5454H1133.92V252H1092.97V156.226H988.497V252H947.655ZM1185.59 252H1142L1221.37 26.5454H1271.79L1351.27 252H1307.68L1247.46 72.7812H1245.7L1185.59 252ZM1187.02 163.602H1305.91V196.407H1187.02V163.602Z" fill="black"/>
<path d="M1498.83 72.4877C1498.84 71.1432 1498.31 69.8513 1497.36 68.9034L1465.8 37.5447C1462.66 34.4252 1457.32 36.6192 1457.28 41.0438L1455.94 188.639C1455.91 192.743 1460.56 195.143 1463.88 192.735L1494.05 170.869C1496.62 169.004 1498.15 166.026 1498.18 162.848L1498.83 72.4877Z" fill="#578EE0"/>
<path d="M1585.23 67.6207C1586.26 67.6207 1587.27 67.2989 1588.12 66.6997L1626.46 39.6141C1630.45 36.7932 1628.51 30.5221 1623.64 30.5221L1474.38 30.5222C1469.93 30.5221 1467.66 35.934 1470.8 39.0823L1496.38 64.7152C1498.24 66.5763 1500.76 67.6207 1503.4 67.6207L1585.23 67.6207Z" fill="#F47200"/>
<path d="M1502.06 169.236C1500.94 169.236 1499.85 169.612 1498.97 170.303L1465.38 196.678C1461.64 199.61 1463.72 205.611 1468.47 205.611L1519.91 205.611C1521.22 205.611 1522.48 205.097 1523.41 204.18L1541.55 186.375C1547.95 180.104 1543.5 169.236 1534.55 169.236L1502.06 169.236Z" fill="#F47200"/>
<path d="M1608.73 95.0312C1610.12 95.0206 1611.44 95.5841 1612.4 96.5876L1640.19 125.859C1643.2 129.027 1640.98 134.259 1636.61 134.303L1524.98 135.408C1520.73 135.45 1518.37 130.504 1521.08 127.225L1544.3 99.0987C1546.19 96.8177 1548.98 95.4871 1551.94 95.4646L1608.73 95.0312Z" fill="#F47200"/>
<path d="M1587.95 138.83C1588.88 137.832 1590.17 137.266 1591.51 137.262L1635.66 137.144C1640.01 137.133 1642.26 142.457 1639.26 145.683L1539.92 252.823C1537.15 255.815 1532.22 254.327 1531.48 250.271L1524.61 212.99C1524.02 209.794 1524.97 206.506 1527.16 204.152L1587.95 138.83Z" fill="#578EE0"/>
</svg>
