<svg width="250" height="350" viewBox="0 0 250 350" fill="none" xmlns="http://www.w3.org/2000/svg">
<path d="M0 9.12014C0 5.17224 4.36059 2.7816 7.68897 4.90475L122.311 78.0216C123.951 79.0677 126.049 79.0677 127.689 78.0216L242.311 4.90475C245.639 2.78159 250 5.17223 250 9.12014V66.747C250 68.4466 249.137 70.0299 247.708 70.9503L127.708 148.256C126.059 149.318 123.941 149.318 122.292 148.256L2.29219 70.9503C0.86339 70.0299 0 68.4467 0 66.747V9.12014Z" fill="#578EE0"/>
<path d="M0 175C0 172.239 2.23858 170 5 170H245C247.761 170 250 172.239 250 175V224.538C250 227.3 247.761 229.538 245 229.538H74.8069C73.0472 229.538 71.4171 230.463 70.5146 231.974L9.29228 334.447C6.68885 338.804 0 336.958 0 331.882V175Z" fill="#F47200"/>
</svg>
