<svg width="2632" height="258" viewBox="0 0 2632 258" fill="none" xmlns="http://www.w3.org/2000/svg">
<path d="M0 9.26549C0 5.28765 4.41975 2.90259 7.74469 5.08618L86.7553 56.9749C88.4215 58.0692 90.5785 58.0692 92.2447 56.9749L171.255 5.08617C174.58 2.90259 179 5.28765 179 9.2655V48.5285C179 50.2044 178.16 51.7689 176.764 52.6953L92.2636 108.739C90.5887 109.849 88.4114 109.849 86.7364 108.739L2.23641 52.6953C0.839698 51.7689 0 50.2044 0 48.5285V9.26549Z" fill="#578EE0"/>
<path d="M0 130.314C0 127.553 2.23858 125.314 5 125.314H174C176.761 125.314 179 127.553 179 130.314V164.203C179 166.964 176.761 169.203 174 169.203H54.4097C52.6273 169.203 50.9797 170.151 50.0851 171.693L9.32456 241.932C6.75992 246.351 0 244.532 0 239.422V130.314Z" fill="#F47200"/>
<path d="M336 55.2794C336 53.4837 336.963 51.8258 338.523 50.9361L376.523 29.2643C379.856 27.3633 384 29.7703 384 33.6076V234.533C384 238.551 379.5 240.928 376.181 238.662L340.362 214.211C337.633 212.347 336 209.256 336 205.952V55.2794Z" fill="#F47200"/>
<path d="M1777 10.4112C1777 6.40392 1781.48 4.0248 1784.8 6.26783L1870.8 64.3586C1872.18 65.2883 1873 66.8409 1873 68.5019V110.032C1873 114.103 1868.39 116.468 1865.09 114.095L1829.51 88.5843C1826.2 86.2121 1821.59 88.5767 1821.59 92.6477V233.472C1821.59 237.686 1816.7 240.01 1813.43 237.347L1780.68 210.643C1778.35 208.744 1777 205.898 1777 202.893V10.4112Z" fill="#F47200"/>
<path d="M1987 10.3039C1987 6.31826 1982.56 3.93474 1979.24 6.13412L1891.24 64.3627C1889.84 65.2886 1889 66.8547 1889 68.5325V110.148C1889 114.196 1893.56 116.566 1896.87 114.239L1933.6 88.4406C1936.92 86.1135 1941.48 88.4834 1941.48 92.5322V233.608C1941.48 237.798 1946.32 240.13 1949.6 237.514L1983.24 210.645C1985.62 208.747 1987 205.872 1987 202.831V10.3039Z" fill="#578EE0"/>
<path d="M449 102.603C449 104.776 447.596 106.7 445.527 107.364L409.527 118.907C406.3 119.942 403 117.535 403 114.146V10.2747C403 6.76728 406.517 4.34991 409.792 5.6067L442.583 18.1925C446.449 19.6761 449 23.3882 449 27.5285V102.603Z" fill="#578EE0"/>
<path d="M2053.19 239H2009.6L2088.97 13.5454H2139.39L2218.87 239H2175.27L2115.06 59.7812H2113.3L2053.19 239ZM2054.62 150.602H2173.51V183.407H2054.62V150.602ZM2226.86 239V13.5454H2311.41C2328.73 13.5454 2343.26 16.5544 2355 22.5724C2366.82 28.5904 2375.74 37.0303 2381.75 47.892C2387.84 58.6804 2390.89 71.2668 2390.89 85.6513C2390.89 100.109 2387.81 112.659 2381.64 123.3C2375.55 133.869 2366.56 142.052 2354.67 147.849C2342.78 153.574 2328.18 156.436 2310.86 156.436H2250.64V122.53H2305.35C2315.48 122.53 2323.78 121.135 2330.23 118.347C2336.69 115.484 2341.46 111.338 2344.54 105.907C2347.7 100.403 2349.28 93.6508 2349.28 85.6513C2349.28 77.6517 2347.7 70.8265 2344.54 65.1754C2341.39 59.451 2336.58 55.121 2330.12 52.1854C2323.67 49.1764 2315.34 47.6719 2305.13 47.6719H2267.71V239H2226.86ZM2343.33 136.841L2399.15 239H2353.57L2298.75 136.841H2343.33ZM2557.82 85.5412C2555.99 79.5966 2553.45 74.2758 2550.23 69.5788C2547.07 64.8085 2543.25 60.7353 2538.78 57.3594C2534.37 53.9834 2529.31 51.4515 2523.58 49.7635C2517.86 48.0021 2511.62 47.1215 2504.87 47.1215C2492.76 47.1215 2481.97 50.1671 2472.51 56.2585C2463.04 62.3499 2455.59 71.3035 2450.16 83.1193C2444.8 94.8617 2442.12 109.173 2442.12 126.053C2442.12 143.079 2444.8 157.5 2450.16 169.316C2455.52 181.132 2462.96 190.122 2472.51 196.287C2482.05 202.378 2493.13 205.424 2505.75 205.424C2517.2 205.424 2527.11 203.222 2535.47 198.819C2543.91 194.415 2550.41 188.177 2554.96 180.104C2559.51 171.958 2561.78 162.417 2561.78 151.482L2571.03 152.913H2509.82V120.989H2601.31V148.07C2601.31 167.371 2597.2 184.067 2588.98 198.158C2580.76 212.249 2569.45 223.111 2555.07 230.744C2540.68 238.303 2524.17 242.082 2505.53 242.082C2484.76 242.082 2466.52 237.422 2450.82 228.102C2435.19 218.708 2422.97 205.387 2414.16 188.141C2405.43 170.821 2401.06 150.271 2401.06 126.493C2401.06 108.292 2403.63 92.0362 2408.77 77.7251C2413.98 63.4141 2421.24 51.268 2430.56 41.2869C2439.88 31.2325 2450.82 23.5999 2463.37 18.3892C2475.92 13.1051 2489.57 10.4631 2504.32 10.4631C2516.8 10.4631 2528.43 12.2978 2539.22 15.9673C2550.01 19.5634 2559.58 24.7008 2567.95 31.3793C2576.39 38.0578 2583.32 45.9839 2588.76 55.1577C2594.19 64.3314 2597.75 74.4593 2599.43 85.5412H2557.82Z" fill="black"/>
<path d="M500.19 238H456.596L535.967 12.5454H586.386L665.868 238H622.274L562.058 58.7812H560.296L500.19 238ZM501.621 149.602H620.513V182.407H501.621V149.602ZM673.863 238V12.5454H758.409C775.729 12.5454 790.26 15.5544 802.003 21.5724C813.818 27.5904 822.735 36.0303 828.753 46.892C834.845 57.6804 837.89 70.2668 837.89 84.6513C837.89 99.1091 834.808 111.659 828.643 122.3C822.552 132.869 813.562 141.052 801.672 146.849C789.783 152.574 775.178 155.436 757.858 155.436H697.642V121.53H752.354C762.482 121.53 770.775 120.135 777.233 117.347C783.692 114.484 788.462 110.338 791.545 104.907C794.7 99.4027 796.278 92.6508 796.278 84.6513C796.278 76.6517 794.7 69.8265 791.545 64.1754C788.389 58.451 783.582 54.121 777.123 51.1854C770.665 48.1764 762.335 46.6719 752.134 46.6719H714.705V238H673.863ZM790.334 135.841L846.147 238H800.571L745.749 135.841H790.334ZM894.626 12.5454V238H853.784V12.5454H894.626ZM917.153 238V12.5454H957.994V116.136H960.747L1048.7 12.5454H1098.57L1011.39 113.714L1099.34 238H1050.25L982.984 141.345L957.994 170.848V238H917.153ZM1226.56 74.5234C1225.53 64.9093 1221.2 57.4235 1213.57 52.066C1206.01 46.7086 1196.18 44.0298 1184.07 44.0298C1175.56 44.0298 1168.25 45.3142 1162.16 47.8828C1156.07 50.4515 1151.41 53.9375 1148.18 58.3409C1144.95 62.7443 1143.3 67.7715 1143.23 73.4226C1143.23 78.1196 1144.29 82.1927 1146.42 85.642C1148.62 89.0914 1151.59 92.027 1155.34 94.4489C1159.08 96.7973 1163.23 98.7789 1167.78 100.393C1172.33 102.008 1176.91 103.366 1181.54 104.467L1202.67 109.751C1211.19 111.732 1219.37 114.411 1227.22 117.787C1235.15 121.163 1242.23 125.42 1248.47 130.557C1254.78 135.694 1259.77 141.896 1263.44 149.161C1267.11 156.427 1268.94 164.94 1268.94 174.701C1268.94 187.911 1265.57 199.544 1258.82 209.598C1252.06 219.579 1242.3 227.395 1229.53 233.046C1216.84 238.624 1201.46 241.413 1183.41 241.413C1165.87 241.413 1150.64 238.697 1137.72 233.266C1124.88 227.835 1114.83 219.909 1107.56 209.488C1100.37 199.067 1096.48 186.37 1095.89 171.398H1136.07C1136.66 179.251 1139.08 185.783 1143.34 190.994C1147.59 196.204 1153.13 200.094 1159.96 202.663C1166.86 205.231 1174.56 206.516 1183.08 206.516C1191.96 206.516 1199.74 205.195 1206.42 202.553C1213.17 199.837 1218.45 196.094 1222.27 191.324C1226.08 186.48 1228.03 180.829 1228.1 174.371C1228.03 168.5 1226.3 163.656 1222.93 159.839C1219.55 155.95 1214.82 152.721 1208.73 150.152C1202.71 147.51 1195.66 145.161 1187.59 143.107L1161.94 136.501C1143.37 131.731 1128.7 124.502 1117.91 114.815C1107.19 105.054 1101.84 92.1004 1101.84 75.9545C1101.84 62.6709 1105.43 51.0386 1112.62 41.0575C1119.89 31.0765 1129.76 23.3338 1142.24 17.8295C1154.71 12.2519 1168.84 9.46306 1184.62 9.46306C1200.62 9.46306 1214.64 12.2519 1226.67 17.8295C1238.78 23.3338 1248.29 31.0031 1255.18 40.8373C1262.08 50.5982 1265.64 61.8269 1265.86 74.5234H1226.56ZM1283.66 238V12.5454H1324.5V107.989H1428.97V12.5454H1469.92V238H1428.97V142.226H1324.5V238H1283.66ZM1521.59 238H1478L1557.37 12.5454H1607.79L1687.27 238H1643.68L1583.46 58.7812H1581.7L1521.59 238ZM1523.02 149.602H1641.91V182.407H1523.02V149.602Z" fill="black"/>
</svg>
