<svg width="2296" height="245" viewBox="0 0 2296 245" fill="none" xmlns="http://www.w3.org/2000/svg">
<path d="M0 54.2794C0 52.4837 0.96303 50.8258 2.52296 49.9361L40.523 28.2643C43.8562 26.3633 48 28.7703 48 32.6076V233.533C48 237.551 43.4998 239.928 40.181 237.662L4.36196 213.211C1.63262 211.347 0 208.256 0 204.952V54.2794Z" fill="#F47200"/>
<path d="M1441 9.41116C1441 5.40392 1445.48 3.0248 1448.8 5.26783L1534.8 63.3586C1536.18 64.2883 1537 65.8409 1537 67.5019V109.032C1537 113.103 1532.39 115.468 1529.09 113.095L1493.51 87.5843C1490.2 85.2121 1485.59 87.5767 1485.59 91.6477V232.472C1485.59 236.686 1480.7 239.01 1477.43 236.347L1444.68 209.643C1442.35 207.744 1441 204.898 1441 201.893V9.41116Z" fill="#F47200"/>
<path d="M1651 9.30392C1651 5.31826 1646.56 2.93474 1643.24 5.13412L1555.24 63.3627C1553.84 64.2886 1553 65.8547 1553 67.5325V109.148C1553 113.196 1557.56 115.566 1560.87 113.239L1597.6 87.4406C1600.92 85.1135 1605.48 87.4834 1605.48 91.5322V232.608C1605.48 236.798 1610.32 239.13 1613.6 236.514L1647.24 209.645C1649.62 207.747 1651 204.872 1651 201.831V9.30392Z" fill="#578EE0"/>
<path d="M113 101.603C113 103.776 111.596 105.7 109.527 106.364L73.5267 117.907C70.2998 118.942 67 116.535 67 113.146V9.27469C67 5.76728 70.5171 3.34991 73.7916 4.6067L106.583 17.1925C110.449 18.6761 113 22.3882 113 26.5285V101.603Z" fill="#578EE0"/>
<path d="M1717.19 238H1673.6L1752.97 12.5454H1803.39L1882.87 238H1839.27L1779.06 58.7812H1777.3L1717.19 238ZM1718.62 149.602H1837.51V182.407H1718.62V149.602ZM1890.86 238V12.5454H1975.41C1992.73 12.5454 2007.26 15.5544 2019 21.5724C2030.82 27.5904 2039.74 36.0303 2045.75 46.892C2051.84 57.6804 2054.89 70.2668 2054.89 84.6513C2054.89 99.1091 2051.81 111.659 2045.64 122.3C2039.55 132.869 2030.56 141.052 2018.67 146.849C2006.78 152.574 1992.18 155.436 1974.86 155.436H1914.64V121.53H1969.35C1979.48 121.53 1987.78 120.135 1994.23 117.347C2000.69 114.484 2005.46 110.338 2008.54 104.907C2011.7 99.4027 2013.28 92.6508 2013.28 84.6513C2013.28 76.6517 2011.7 69.8265 2008.54 64.1754C2005.39 58.451 2000.58 54.121 1994.12 51.1854C1987.67 48.1764 1979.34 46.6719 1969.13 46.6719H1931.71V238H1890.86ZM2007.33 135.841L2063.15 238H2017.57L1962.75 135.841H2007.33ZM2221.82 84.5412C2219.99 78.5966 2217.45 73.2758 2214.23 68.5788C2211.07 63.8085 2207.25 59.7353 2202.78 56.3594C2198.37 52.9834 2193.31 50.4515 2187.58 48.7635C2181.86 47.0021 2175.62 46.1215 2168.87 46.1215C2156.76 46.1215 2145.97 49.1671 2136.51 55.2585C2127.04 61.3499 2119.59 70.3035 2114.16 82.1193C2108.8 93.8617 2106.12 108.173 2106.12 125.053C2106.12 142.079 2108.8 156.5 2114.16 168.316C2119.52 180.132 2126.96 189.122 2136.51 195.287C2146.05 201.378 2157.13 204.424 2169.75 204.424C2181.2 204.424 2191.11 202.222 2199.47 197.819C2207.91 193.415 2214.41 187.177 2218.96 179.104C2223.51 170.958 2225.78 161.417 2225.78 150.482L2235.03 151.913H2173.82V119.989H2265.31V147.07C2265.31 166.371 2261.2 183.067 2252.98 197.158C2244.76 211.249 2233.45 222.111 2219.07 229.744C2204.68 237.303 2188.17 241.082 2169.53 241.082C2148.76 241.082 2130.52 236.422 2114.82 227.102C2099.19 217.708 2086.97 204.387 2078.16 187.141C2069.43 169.821 2065.06 149.271 2065.06 125.493C2065.06 107.292 2067.63 91.0362 2072.77 76.7251C2077.98 62.4141 2085.24 50.268 2094.56 40.2869C2103.88 30.2325 2114.82 22.5999 2127.37 17.3892C2139.92 12.1051 2153.57 9.46306 2168.32 9.46306C2180.8 9.46306 2192.43 11.2978 2203.22 14.9673C2214.01 18.5634 2223.58 23.7008 2231.95 30.3793C2240.39 37.0578 2247.32 44.9839 2252.76 54.1577C2258.19 63.3314 2261.75 73.4593 2263.43 84.5412H2221.82Z" fill="black"/>
<path d="M164.19 237H120.596L199.967 11.5454H250.386L329.868 237H286.274L226.058 57.7812H224.296L164.19 237ZM165.621 148.602H284.513V181.407H165.621V148.602ZM337.863 237V11.5454H422.409C439.729 11.5454 454.26 14.5544 466.003 20.5724C477.818 26.5904 486.735 35.0303 492.753 45.892C498.845 56.6804 501.89 69.2668 501.89 83.6513C501.89 98.1091 498.808 110.659 492.643 121.3C486.552 131.869 477.562 140.052 465.672 145.849C453.783 151.574 439.178 154.436 421.858 154.436H361.642V120.53H416.354C426.482 120.53 434.775 119.135 441.233 116.347C447.692 113.484 452.462 109.338 455.545 103.907C458.7 98.4027 460.278 91.6508 460.278 83.6513C460.278 75.6517 458.7 68.8265 455.545 63.1754C452.389 57.451 447.582 53.121 441.123 50.1854C434.665 47.1764 426.335 45.6719 416.134 45.6719H378.705V237H337.863ZM454.334 134.841L510.147 237H464.571L409.749 134.841H454.334ZM558.626 11.5454V237H517.784V11.5454H558.626ZM581.153 237V11.5454H621.994V115.136H624.747L712.705 11.5454H762.573L675.386 112.714L763.344 237H714.246L646.984 140.345L621.994 169.848V237H581.153ZM890.562 73.5234C889.534 63.9093 885.204 56.4235 877.572 51.066C870.012 45.7086 860.178 43.0298 848.069 43.0298C839.556 43.0298 832.253 44.3142 826.162 46.8828C820.07 49.4515 815.41 52.9375 812.181 57.3409C808.952 61.7443 807.301 66.7715 807.227 72.4226C807.227 77.1196 808.291 81.1927 810.42 84.642C812.621 88.0914 815.594 91.027 819.337 93.4489C823.079 95.7973 827.226 97.7789 831.776 99.3935C836.326 101.008 840.913 102.366 845.537 103.467L866.673 108.751C875.186 110.732 883.369 113.411 891.222 116.787C899.148 120.163 906.23 124.42 912.469 129.557C918.78 134.694 923.771 140.896 927.44 148.161C931.11 155.427 932.945 163.94 932.945 173.701C932.945 186.911 929.569 198.544 922.817 208.598C916.065 218.579 906.304 226.395 893.534 232.046C880.838 237.624 865.462 240.413 847.408 240.413C829.868 240.413 814.64 237.697 801.723 232.266C788.88 226.835 778.825 218.909 771.56 208.488C764.367 198.067 760.478 185.37 759.891 170.398H800.072C800.659 178.251 803.081 184.783 807.337 189.994C811.594 195.204 817.135 199.094 823.96 201.663C830.859 204.231 838.565 205.516 847.078 205.516C855.958 205.516 863.738 204.195 870.416 201.553C877.168 198.837 882.452 195.094 886.268 190.324C890.085 185.48 892.03 179.829 892.103 173.371C892.03 167.5 890.305 162.656 886.929 158.839C883.553 154.95 878.819 151.721 872.728 149.152C866.71 146.51 859.664 144.161 851.592 142.107L825.942 135.501C807.374 130.731 792.696 123.502 781.908 113.815C771.193 104.054 765.835 91.1004 765.835 74.9545C765.835 61.6709 769.431 50.0386 776.623 40.0575C783.889 30.0765 793.76 22.3338 806.236 16.8295C818.713 11.2519 832.84 8.46306 848.619 8.46306C864.618 8.46306 878.636 11.2519 890.672 16.8295C902.781 22.3338 912.285 30.0031 919.184 39.8373C926.083 49.5982 929.642 60.8269 929.862 73.5234H890.562ZM947.655 237V11.5454H988.497V106.989H1092.97V11.5454H1133.92V237H1092.97V141.226H988.497V237H947.655ZM1185.59 237H1142L1221.37 11.5454H1271.79L1351.27 237H1307.68L1247.46 57.7812H1245.7L1185.59 237ZM1187.02 148.602H1305.91V181.407H1187.02V148.602Z" fill="black"/>
</svg>
