<svg width="376" height="340" viewBox="0 0 376 340" fill="none" xmlns="http://www.w3.org/2000/svg">
<path d="M0 72.674C0 70.9035 0.936301 69.265 2.46167 68.3662L57.8497 35.7291C61.1828 33.7651 65.388 36.1681 65.388 40.0369V329.879C65.388 333.932 60.8184 336.301 57.5061 333.965L4.23629 296.393C1.57995 294.519 0 291.472 0 288.221V72.674Z" fill="#F47200"/>
<path d="M146.596 141.368C146.596 143.531 145.206 145.448 143.151 146.12L89.8723 163.56C86.6397 164.618 83.3169 162.21 83.3169 158.808V7.32913C83.3169 3.80692 86.8615 1.38878 90.1409 2.67371L140.244 22.3044C144.075 23.8055 146.596 27.5004 146.596 31.6152V141.368Z" fill="#578EE0"/>
<path d="M312.721 152.587C312.721 148.23 317.906 145.958 321.11 148.911L374.389 198.015C375.416 198.961 376 200.295 376 201.691V322.373C376 327.028 370.197 329.157 367.187 325.607L315.094 264.178C313.562 262.371 312.721 260.079 312.721 257.71V152.587Z" fill="#F47200"/>
<path d="M250.224 199.264C247.463 199.264 245.224 197.025 245.224 194.264V145.745C245.224 142.984 247.463 140.745 250.224 140.745H300.339C303.1 140.745 305.339 142.984 305.339 145.745V189.264C305.339 194.786 300.862 199.264 295.339 199.264H250.224Z" fill="#578EE0"/>
<path d="M236.295 264.314C234.849 264.314 233.473 264.941 232.524 266.032L180.717 325.559C177.9 328.794 180.199 333.841 184.488 333.841H355.236C359.486 333.841 361.798 328.873 359.061 325.621L310.445 267.874C308.545 265.617 305.745 264.314 302.795 264.314H236.295Z" fill="#578EE0"/>
<path d="M236.787 185.378C236.787 189.921 231.217 192.11 228.124 188.781L174.845 131.439C173.986 130.514 173.508 129.298 173.508 128.036V16.9112C173.508 12.2561 179.311 10.127 182.322 13.6774L234.414 75.1066C235.946 76.9133 236.787 79.2053 236.787 81.5742V185.378Z" fill="#F47200"/>
<path d="M313.213 73.97C314.659 73.97 316.035 73.3436 316.985 72.2525L368.792 12.7255C371.608 9.48982 369.31 4.44301 365.02 4.44301H194.273C190.022 4.44301 187.71 9.41119 190.448 12.6632L239.063 70.4103C240.963 72.6673 243.763 73.97 246.713 73.97H313.213Z" fill="#578EE0"/>
</svg>
