<svg width="2641" height="243" viewBox="0 0 2641 243" fill="none" xmlns="http://www.w3.org/2000/svg">
<path d="M383 52.2794C383 50.4837 383.963 48.8258 385.523 47.9361L423.523 26.2643C426.856 24.3633 431 26.7703 431 30.6076V231.533C431 235.551 426.5 237.928 423.181 235.662L387.362 211.211C384.633 209.347 383 206.256 383 202.952V52.2794Z" fill="#F47200"/>
<path d="M496 99.6025C496 101.776 494.596 103.7 492.527 104.364L456.527 115.907C453.3 116.942 450 114.535 450 111.146V7.27469C450 3.76728 453.517 1.34991 456.792 2.6067L489.583 15.1925C493.449 16.6761 496 20.3882 496 24.5285V99.6025Z" fill="#578EE0"/>
<path d="M2033.24 236V10.5454H2179.87V44.782H2074.08V105.989H2172.27V140.226H2074.08V201.763H2180.75V236H2033.24ZM2189.93 44.782V10.5454H2369.81V44.782H2300.13V236H2259.61V44.782H2189.93ZM2524.91 10.5454H2565.75V157.839C2565.75 173.985 2561.93 188.186 2554.3 200.442C2546.74 212.699 2536.1 222.276 2522.37 229.175C2508.65 236 2492.61 239.413 2474.27 239.413C2455.85 239.413 2439.77 236 2426.05 229.175C2412.33 222.276 2401.68 212.699 2394.13 200.442C2386.57 188.186 2382.79 173.985 2382.79 157.839V10.5454H2423.63V154.427C2423.63 163.821 2425.68 172.187 2429.79 179.526C2433.98 186.865 2439.85 192.626 2447.41 196.81C2454.97 200.92 2463.92 202.974 2474.27 202.974C2484.62 202.974 2493.57 200.92 2501.13 196.81C2508.76 192.626 2514.63 186.865 2518.74 179.526C2522.85 172.187 2524.91 163.821 2524.91 154.427V10.5454Z" fill="black"/>
<path d="M547.19 235H503.596L582.967 9.54545H633.386L712.868 235H669.274L609.058 55.7812H607.296L547.19 235ZM548.621 146.602H667.513V179.407H548.621V146.602ZM720.863 235V9.54545H805.409C822.729 9.54545 837.26 12.5544 849.003 18.5724C860.818 24.5904 869.735 33.0303 875.753 43.892C881.845 54.6804 884.89 67.2668 884.89 81.6513C884.89 96.1091 881.808 108.659 875.643 119.3C869.552 129.869 860.562 138.052 848.672 143.849C836.783 149.574 822.178 152.436 804.858 152.436H744.642V118.53H799.354C809.482 118.53 817.775 117.135 824.233 114.347C830.692 111.484 835.462 107.338 838.545 101.907C841.7 96.4027 843.278 89.6508 843.278 81.6513C843.278 73.6517 841.7 66.8265 838.545 61.1754C835.389 55.451 830.582 51.121 824.123 48.1854C817.665 45.1764 809.335 43.6719 799.134 43.6719H761.705V235H720.863ZM837.334 132.841L893.147 235H847.571L792.749 132.841H837.334ZM941.626 9.54545V235H900.784V9.54545H941.626ZM964.153 235V9.54545H1004.99V113.136H1007.75L1095.7 9.54545H1145.57L1058.39 110.714L1146.34 235H1097.25L1029.98 138.345L1004.99 167.848V235H964.153ZM1273.56 71.5234C1272.53 61.9093 1268.2 54.4235 1260.57 49.066C1253.01 43.7086 1243.18 41.0298 1231.07 41.0298C1222.56 41.0298 1215.25 42.3142 1209.16 44.8828C1203.07 47.4515 1198.41 50.9375 1195.18 55.3409C1191.95 59.7443 1190.3 64.7715 1190.23 70.4226C1190.23 75.1196 1191.29 79.1927 1193.42 82.642C1195.62 86.0914 1198.59 89.027 1202.34 91.4489C1206.08 93.7973 1210.23 95.7789 1214.78 97.3935C1219.33 99.008 1223.91 100.366 1228.54 101.467L1249.67 106.751C1258.19 108.732 1266.37 111.411 1274.22 114.787C1282.15 118.163 1289.23 122.42 1295.47 127.557C1301.78 132.694 1306.77 138.896 1310.44 146.161C1314.11 153.427 1315.94 161.94 1315.94 171.701C1315.94 184.911 1312.57 196.544 1305.82 206.598C1299.06 216.579 1289.3 224.395 1276.53 230.046C1263.84 235.624 1248.46 238.413 1230.41 238.413C1212.87 238.413 1197.64 235.697 1184.72 230.266C1171.88 224.835 1161.83 216.909 1154.56 206.488C1147.37 196.067 1143.48 183.37 1142.89 168.398H1183.07C1183.66 176.251 1186.08 182.783 1190.34 187.994C1194.59 193.204 1200.13 197.094 1206.96 199.663C1213.86 202.231 1221.56 203.516 1230.08 203.516C1238.96 203.516 1246.74 202.195 1253.42 199.553C1260.17 196.837 1265.45 193.094 1269.27 188.324C1273.08 183.48 1275.03 177.829 1275.1 171.371C1275.03 165.5 1273.3 160.656 1269.93 156.839C1266.55 152.95 1261.82 149.721 1255.73 147.152C1249.71 144.51 1242.66 142.161 1234.59 140.107L1208.94 133.501C1190.37 128.731 1175.7 121.502 1164.91 111.815C1154.19 102.054 1148.84 89.1004 1148.84 72.9545C1148.84 59.6709 1152.43 48.0386 1159.62 38.0575C1166.89 28.0765 1176.76 20.3338 1189.24 14.8295C1201.71 9.25188 1215.84 6.46306 1231.62 6.46306C1247.62 6.46306 1261.64 9.25188 1273.67 14.8295C1285.78 20.3338 1295.29 28.0031 1302.18 37.8373C1309.08 47.5982 1312.64 58.8269 1312.86 71.5234H1273.56ZM1330.66 235V9.54545H1371.5V104.989H1475.97V9.54545H1516.92V235H1475.97V139.226H1371.5V235H1330.66ZM1568.59 235H1525L1604.37 9.54545H1654.79L1734.27 235H1690.68L1630.46 55.7812H1628.7L1568.59 235ZM1570.02 146.602H1688.91V179.407H1570.02V146.602Z" fill="black"/>
<path d="M1946.49 110.595C1946.49 106.369 1951.41 104.049 1954.67 106.735L1995.67 140.5C1996.82 141.45 1997.49 142.866 1997.49 144.36V223.746C1997.49 228.226 1992.05 230.445 1988.92 227.244L1949.35 186.824C1947.52 184.955 1946.49 182.444 1946.49 179.829V110.595Z" fill="#F47200"/>
<path d="M1896.49 140C1893.73 140 1891.49 137.761 1891.49 135V104C1891.49 101.239 1893.73 99 1896.49 99H1935.49C1938.25 99 1940.49 101.239 1940.49 104V130C1940.49 135.523 1936.01 140 1930.49 140H1896.49Z" fill="#578EE0"/>
<path d="M1883.91 186C1882.59 186 1881.32 186.522 1880.39 187.452L1841.1 226.452C1837.94 229.596 1840.16 235 1844.63 235H1977.64C1982.06 235 1984.31 229.679 1981.22 226.511L1944.69 189.021C1942.81 187.089 1940.23 186 1937.53 186H1883.91Z" fill="#578EE0"/>
<path d="M1884.49 127.821C1884.49 132.143 1879.38 134.429 1876.16 131.548L1834.16 93.9907C1833.1 93.0422 1832.49 91.6866 1832.49 90.2636V15.086C1832.49 10.6294 1837.88 8.39953 1841.03 11.5536L1881.57 52.1633C1883.44 54.0382 1884.49 56.5791 1884.49 59.2282V127.821Z" fill="#F47200"/>
<path d="M1946.07 53C1947.39 53 1948.66 52.4782 1949.6 51.5484L1988.88 12.5484C1992.05 9.40386 1989.82 4 1985.36 4H1852.34C1847.92 4 1845.68 9.32132 1848.76 12.4894L1885.29 49.9788C1887.18 51.9105 1889.76 53 1892.46 53H1946.07Z" fill="#578EE0"/>
<path d="M0 54.4141C0 52.6639 0.915046 51.0412 2.41261 50.1356L36.7582 29.3653C40.0905 27.3501 44.3456 29.7495 44.3456 33.6437V229.527C44.3456 233.608 39.7198 235.97 36.4138 233.577L4.13637 210.213C1.53834 208.332 0 205.32 0 202.113V54.4141Z" fill="#F47200"/>
<path d="M99.4199 100.325C99.4199 102.472 98.0482 104.38 96.0121 105.064L63.0971 116.122C59.8573 117.21 56.5048 114.8 56.5048 111.382V10.3997C56.5048 6.85847 60.0847 4.43952 63.3702 5.76069L93.1507 17.7359C96.9383 19.2589 99.4199 22.9314 99.4199 27.0138V100.325Z" fill="#578EE0"/>
<path d="M212.085 112.877C212.085 108.489 217.333 106.229 220.521 109.245L253.436 140.379C254.434 141.323 255 142.637 255 144.011V222.965C255 227.652 249.131 229.763 246.146 226.15L214.376 187.701C212.895 185.908 212.085 183.656 212.085 181.331V112.877Z" fill="#F47200"/>
<path d="M171.309 141.694C168.547 141.694 166.309 139.455 166.309 136.694V105.963C166.309 103.201 168.547 100.963 171.309 100.963H202.078C204.84 100.963 207.078 103.201 207.078 105.963V131.694C207.078 137.216 202.601 141.694 197.078 141.694H171.309Z" fill="#578EE0"/>
<path d="M161.025 186.971C159.556 186.971 158.162 187.617 157.212 188.737L124.654 227.13C121.899 230.378 124.208 235.364 128.468 235.364H237.637C241.858 235.364 244.179 230.456 241.502 227.193L211.509 190.629C209.61 188.313 206.772 186.971 203.778 186.971H161.025Z" fill="#578EE0"/>
<path d="M160.587 127.914C160.587 132.489 154.951 134.662 151.88 131.27L118.965 94.9126C118.133 93.9932 117.672 92.7972 117.672 91.5569V19.187C117.672 14.5001 123.541 12.389 126.526 16.0021L158.296 54.4515C159.777 56.2438 160.587 58.4962 160.587 60.8212V127.914Z" fill="#F47200"/>
<path d="M211.647 54.4854C213.116 54.4854 214.51 53.8395 215.46 52.7192L248.018 14.3263C250.772 11.0777 248.464 6.09247 244.204 6.09247H135.035C130.814 6.09247 128.492 11 131.169 14.2635L161.163 50.8276C163.062 53.1431 165.899 54.4854 168.894 54.4854H211.647Z" fill="#578EE0"/>
</svg>
