<svg width="2258" height="243" viewBox="0 0 2258 243" fill="none" xmlns="http://www.w3.org/2000/svg">
<path d="M0 52.2794C0 50.4837 0.96303 48.8258 2.52296 47.9361L40.523 26.2643C43.8562 24.3633 48 26.7703 48 30.6076V231.533C48 235.551 43.4998 237.928 40.181 235.662L4.36196 211.211C1.63262 209.347 0 206.256 0 202.952V52.2794Z" fill="#F47200"/>
<path d="M113 99.6025C113 101.776 111.596 103.7 109.527 104.364L73.5267 115.907C70.2998 116.942 67 114.535 67 111.146V7.27469C67 3.76728 70.5171 1.34991 73.7916 2.6067L106.583 15.1925C110.449 16.6761 113 20.3882 113 24.5285V99.6025Z" fill="#578EE0"/>
<path d="M1650.24 236V10.5454H1796.87V44.782H1691.08V105.989H1789.27V140.226H1691.08V201.763H1797.75V236H1650.24ZM1806.93 44.782V10.5454H1986.81V44.782H1917.13V236H1876.61V44.782H1806.93ZM2141.91 10.5454H2182.75V157.839C2182.75 173.985 2178.93 188.186 2171.3 200.442C2163.74 212.699 2153.1 222.276 2139.37 229.175C2125.65 236 2109.61 239.413 2091.27 239.413C2072.85 239.413 2056.77 236 2043.05 229.175C2029.33 222.276 2018.68 212.699 2011.13 200.442C2003.57 188.186 1999.79 173.985 1999.79 157.839V10.5454H2040.63V154.427C2040.63 163.821 2042.68 172.187 2046.79 179.526C2050.98 186.865 2056.85 192.626 2064.41 196.81C2071.97 200.92 2080.92 202.974 2091.27 202.974C2101.62 202.974 2110.57 200.92 2118.13 196.81C2125.76 192.626 2131.63 186.865 2135.74 179.526C2139.85 172.187 2141.91 163.821 2141.91 154.427V10.5454Z" fill="black"/>
<path d="M164.19 235H120.596L199.967 9.54545H250.386L329.868 235H286.274L226.058 55.7812H224.296L164.19 235ZM165.621 146.602H284.513V179.407H165.621V146.602ZM337.863 235V9.54545H422.409C439.729 9.54545 454.26 12.5544 466.003 18.5724C477.818 24.5904 486.735 33.0303 492.753 43.892C498.845 54.6804 501.89 67.2668 501.89 81.6513C501.89 96.1091 498.808 108.659 492.643 119.3C486.552 129.869 477.562 138.052 465.672 143.849C453.783 149.574 439.178 152.436 421.858 152.436H361.642V118.53H416.354C426.482 118.53 434.775 117.135 441.233 114.347C447.692 111.484 452.462 107.338 455.545 101.907C458.7 96.4027 460.278 89.6508 460.278 81.6513C460.278 73.6517 458.7 66.8265 455.545 61.1754C452.389 55.451 447.582 51.121 441.123 48.1854C434.665 45.1764 426.335 43.6719 416.134 43.6719H378.705V235H337.863ZM454.334 132.841L510.147 235H464.571L409.749 132.841H454.334ZM558.626 9.54545V235H517.784V9.54545H558.626ZM581.153 235V9.54545H621.994V113.136H624.747L712.705 9.54545H762.573L675.386 110.714L763.344 235H714.246L646.984 138.345L621.994 167.848V235H581.153ZM890.562 71.5234C889.534 61.9093 885.204 54.4235 877.572 49.066C870.012 43.7086 860.178 41.0298 848.069 41.0298C839.556 41.0298 832.253 42.3142 826.162 44.8828C820.07 47.4515 815.41 50.9375 812.181 55.3409C808.952 59.7443 807.301 64.7715 807.227 70.4226C807.227 75.1196 808.291 79.1927 810.42 82.642C812.621 86.0914 815.594 89.027 819.337 91.4489C823.079 93.7973 827.226 95.7789 831.776 97.3935C836.326 99.008 840.913 100.366 845.537 101.467L866.673 106.751C875.186 108.732 883.369 111.411 891.222 114.787C899.148 118.163 906.23 122.42 912.469 127.557C918.78 132.694 923.771 138.896 927.44 146.161C931.11 153.427 932.945 161.94 932.945 171.701C932.945 184.911 929.569 196.544 922.817 206.598C916.065 216.579 906.304 224.395 893.534 230.046C880.838 235.624 865.462 238.413 847.408 238.413C829.868 238.413 814.64 235.697 801.723 230.266C788.88 224.835 778.825 216.909 771.56 206.488C764.367 196.067 760.478 183.37 759.891 168.398H800.072C800.659 176.251 803.081 182.783 807.337 187.994C811.594 193.204 817.135 197.094 823.96 199.663C830.859 202.231 838.565 203.516 847.078 203.516C855.958 203.516 863.738 202.195 870.416 199.553C877.168 196.837 882.452 193.094 886.268 188.324C890.085 183.48 892.03 177.829 892.103 171.371C892.03 165.5 890.305 160.656 886.929 156.839C883.553 152.95 878.819 149.721 872.728 147.152C866.71 144.51 859.664 142.161 851.592 140.107L825.942 133.501C807.374 128.731 792.696 121.502 781.908 111.815C771.193 102.054 765.835 89.1004 765.835 72.9545C765.835 59.6709 769.431 48.0386 776.623 38.0575C783.889 28.0765 793.76 20.3338 806.236 14.8295C818.713 9.25188 832.84 6.46306 848.619 6.46306C864.618 6.46306 878.636 9.25188 890.672 14.8295C902.781 20.3338 912.285 28.0031 919.184 37.8373C926.083 47.5982 929.642 58.8269 929.862 71.5234H890.562ZM947.655 235V9.54545H988.497V104.989H1092.97V9.54545H1133.92V235H1092.97V139.226H988.497V235H947.655ZM1185.59 235H1142L1221.37 9.54545H1271.79L1351.27 235H1307.68L1247.46 55.7812H1245.7L1185.59 235ZM1187.02 146.602H1305.91V179.407H1187.02V146.602Z" fill="black"/>
<path d="M1563.49 110.595C1563.49 106.369 1568.41 104.049 1571.67 106.735L1612.67 140.5C1613.82 141.45 1614.49 142.866 1614.49 144.36V223.746C1614.49 228.226 1609.05 230.445 1605.92 227.244L1566.35 186.824C1564.52 184.955 1563.49 182.444 1563.49 179.829V110.595Z" fill="#F47200"/>
<path d="M1513.49 140C1510.73 140 1508.49 137.761 1508.49 135V104C1508.49 101.239 1510.73 99 1513.49 99H1552.49C1555.25 99 1557.49 101.239 1557.49 104V130C1557.49 135.523 1553.01 140 1547.49 140H1513.49Z" fill="#578EE0"/>
<path d="M1500.91 186C1499.59 186 1498.32 186.522 1497.39 187.452L1458.1 226.452C1454.94 229.596 1457.16 235 1461.63 235H1594.64C1599.06 235 1601.31 229.679 1598.22 226.511L1561.69 189.021C1559.81 187.089 1557.23 186 1554.53 186H1500.91Z" fill="#578EE0"/>
<path d="M1501.49 127.821C1501.49 132.143 1496.38 134.429 1493.16 131.548L1451.16 93.9907C1450.1 93.0422 1449.49 91.6866 1449.49 90.2636V15.086C1449.49 10.6294 1454.88 8.39953 1458.03 11.5536L1498.57 52.1633C1500.44 54.0382 1501.49 56.5791 1501.49 59.2282V127.821Z" fill="#F47200"/>
<path d="M1563.07 53C1564.39 53 1565.66 52.4782 1566.6 51.5484L1605.88 12.5484C1609.05 9.40386 1606.82 4 1602.36 4H1469.34C1464.92 4 1462.68 9.32132 1465.76 12.4894L1502.29 49.9788C1504.18 51.9105 1506.76 53 1509.46 53H1563.07Z" fill="#578EE0"/>
</svg>
