<svg width="335" height="382" viewBox="0 0 335 382" fill="none" xmlns="http://www.w3.org/2000/svg">
<path d="M265.038 32.3345C265.814 30.6414 267.434 29.5836 269.241 29.5894L325.746 29.7706C329.4 29.7823 331.89 33.9029 330.309 37.3195L184.42 352.436C182.632 356.298 177.303 355.997 175.609 351.938L150.229 291.108C149.062 288.311 149.094 285.163 150.317 282.496L265.038 32.3345Z" fill="#F47200"/>
<path d="M145.566 29.6576C149.53 29.6576 151.917 34.0501 149.762 37.3768L118.242 86.0152C117.321 87.4366 115.743 88.295 114.05 88.2961L10.5148 88.3629C6.82822 88.3653 4.40683 84.5131 6.00746 81.1921L28.1181 35.3159C29.7854 31.8566 33.2863 29.6576 37.1265 29.6576L145.566 29.6576Z" fill="#578EE0"/>
<path d="M26.6023 166.614C22.5329 166.614 20.1679 171.216 22.537 174.525L57.374 223.18C58.3129 224.491 59.8266 225.269 61.4394 225.269L150.085 225.269C154.189 225.269 156.546 220.596 154.105 217.296L119.628 170.669C117.742 168.118 114.759 166.614 111.587 166.614L26.6023 166.614Z" fill="#578EE0"/>
<path d="M176.056 214.981C176.056 219.77 169.972 221.819 167.074 218.005L123.268 160.349C122.608 159.479 122.25 158.417 122.25 157.324V97.4995C122.25 96.5466 122.522 95.6135 123.035 94.8101L157.625 40.5963C163.003 32.1675 176.056 35.9768 176.056 45.9751L176.056 214.981Z" fill="#578EE0"/>
<path d="M1.40444e-06 178.73C9.51359e-07 173.941 6.08386 171.892 8.98125 175.705L52.7871 233.362C53.448 234.232 53.8058 235.294 53.8058 236.387V296.211C53.8058 297.164 53.5335 298.097 53.0209 298.901L18.4302 353.114C13.0523 361.543 1.83385e-05 357.734 1.73926e-05 347.736L1.40444e-06 178.73Z" fill="#578EE0"/>
</svg>
