<svg width="2923" height="273" viewBox="0 0 2923 273" fill="none" xmlns="http://www.w3.org/2000/svg">
<path d="M430 69.2794C430 67.4837 430.963 65.8258 432.523 64.9361L470.523 43.2643C473.856 41.3633 478 43.7703 478 47.6076V248.533C478 252.551 473.5 254.928 470.181 252.662L434.362 228.211C431.633 226.347 430 223.256 430 219.952V69.2794Z" fill="#F47200"/>
<path d="M543 116.603C543 118.776 541.596 120.7 539.527 121.364L503.527 132.907C500.3 133.942 497 131.535 497 128.146V24.2747C497 20.7673 500.517 18.3499 503.792 19.6067L536.583 32.1925C540.449 33.6761 543 37.3882 543 41.5285V116.603Z" fill="#578EE0"/>
<path d="M2315.69 140.273C2315.69 164.565 2311.14 185.371 2302.04 202.691C2293.02 219.938 2280.69 233.148 2265.05 242.322C2249.5 251.496 2231.84 256.082 2212.1 256.082C2192.36 256.082 2174.67 251.496 2159.04 242.322C2143.48 233.075 2131.15 219.828 2122.05 202.581C2113.03 185.261 2108.51 164.491 2108.51 140.273C2108.51 115.981 2113.03 95.2112 2122.05 77.9645C2131.15 60.6444 2143.48 47.3975 2159.04 38.2237C2174.67 29.0499 2192.36 24.4631 2212.1 24.4631C2231.84 24.4631 2249.5 29.0499 2265.05 38.2237C2280.69 47.3975 2293.02 60.6444 2302.04 77.9645C2311.14 95.2112 2315.69 115.981 2315.69 140.273ZM2274.63 140.273C2274.63 123.173 2271.95 108.752 2266.6 97.0092C2261.31 85.1934 2253.97 76.2765 2244.58 70.2585C2235.18 64.1671 2224.36 61.1215 2212.1 61.1215C2199.85 61.1215 2189.02 64.1671 2179.63 70.2585C2170.23 76.2765 2162.86 85.1934 2157.5 97.0092C2152.22 108.752 2149.57 123.173 2149.57 140.273C2149.57 157.373 2152.22 171.83 2157.5 183.646C2162.86 195.389 2170.23 204.306 2179.63 210.397C2189.02 216.415 2199.85 219.424 2212.1 219.424C2224.36 219.424 2235.18 216.415 2244.58 210.397C2253.97 204.306 2261.31 195.389 2266.6 183.646C2271.95 171.83 2274.63 157.373 2274.63 140.273ZM2483.64 99.5412C2481.81 93.5966 2479.28 88.2758 2476.05 83.5788C2472.89 78.8085 2469.07 74.7353 2464.6 71.3594C2460.19 67.9834 2455.13 65.4515 2449.41 63.7635C2443.68 62.0021 2437.44 61.1215 2430.69 61.1215C2418.58 61.1215 2407.79 64.1671 2398.33 70.2585C2388.86 76.3499 2381.41 85.3035 2375.98 97.1193C2370.62 108.862 2367.94 123.173 2367.94 140.053C2367.94 157.079 2370.62 171.5 2375.98 183.316C2381.34 195.132 2388.79 204.122 2398.33 210.287C2407.87 216.378 2418.95 219.424 2431.57 219.424C2443.02 219.424 2452.93 217.222 2461.3 212.819C2469.74 208.415 2476.23 202.177 2480.78 194.104C2485.33 185.958 2487.61 176.417 2487.61 165.482L2496.85 166.913H2435.65V134.989H2527.13V162.07C2527.13 181.371 2523.02 198.067 2514.8 212.158C2506.58 226.249 2495.27 237.111 2480.89 244.744C2466.51 252.303 2449.99 256.082 2431.35 256.082C2410.58 256.082 2392.35 251.422 2376.64 242.102C2361.01 232.708 2348.79 219.387 2339.98 202.141C2331.25 184.821 2326.88 164.271 2326.88 140.493C2326.88 122.292 2329.45 106.036 2334.59 91.7251C2339.8 77.4141 2347.06 65.268 2356.38 55.2869C2365.7 45.2325 2376.64 37.5999 2389.19 32.3892C2401.74 27.1051 2415.39 24.4631 2430.14 24.4631C2442.62 24.4631 2454.25 26.2978 2465.04 29.9673C2475.83 33.5634 2485.4 38.7008 2493.77 45.3793C2502.21 52.0578 2509.15 59.9839 2514.58 69.1577C2520.01 78.3314 2523.57 88.4593 2525.25 99.5412H2483.64ZM2521.03 27.5454H2567.16L2622.31 127.283H2624.51L2679.66 27.5454H2725.79L2643.78 168.895V253H2603.04V168.895L2521.03 27.5454ZM2738.96 253H2695.37L2774.74 27.5454H2825.16L2904.64 253H2861.04L2800.83 73.7812H2799.07L2738.96 253ZM2740.39 164.602H2859.28V197.407H2740.39V164.602Z" fill="black"/>
<path d="M1986 149.759C1986 148.621 1986.39 147.516 1987.1 146.628L2083.1 27.0812C2086.06 23.3996 2092 25.4901 2092 30.2119V77.0744C2092 78.1878 2091.63 79.2694 2090.94 80.1476L2024.71 165.145C2024.03 166.023 2023.66 167.105 2023.66 168.218V227.248C2023.66 228.462 2023.22 229.635 2022.41 230.548L2003.51 252.064C1997.43 258.994 1986 254.688 1986 245.464V149.759Z" fill="#F47200"/>
<path d="M1978 149.759C1978 148.621 1977.61 147.516 1976.9 146.628L1880.9 27.0812C1877.94 23.3996 1872 25.4901 1872 30.2119V77.0744C1872 78.1878 1872.37 79.2694 1873.06 80.1476L1939.29 165.145C1939.97 166.023 1940.34 167.105 1940.34 168.218V227.248C1940.34 228.462 1940.78 229.635 1941.59 230.548L1960.49 252.064C1966.57 258.994 1978 254.688 1978 245.464V149.759Z" fill="#578EE0"/>
<path d="M594.19 252H550.596L629.967 26.5454H680.386L759.868 252H716.274L656.058 72.7812H654.296L594.19 252ZM595.621 163.602H714.513V196.407H595.621V163.602ZM767.863 252V26.5454H852.409C869.729 26.5454 884.26 29.5544 896.003 35.5724C907.818 41.5904 916.735 50.0303 922.753 60.892C928.845 71.6804 931.89 84.2668 931.89 98.6513C931.89 113.109 928.808 125.659 922.643 136.3C916.552 146.869 907.562 155.052 895.672 160.849C883.783 166.574 869.178 169.436 851.858 169.436H791.642V135.53H846.354C856.482 135.53 864.775 134.135 871.233 131.347C877.692 128.484 882.462 124.338 885.545 118.907C888.7 113.403 890.278 106.651 890.278 98.6513C890.278 90.6517 888.7 83.8265 885.545 78.1754C882.389 72.451 877.582 68.121 871.123 65.1854C864.665 62.1764 856.335 60.6719 846.134 60.6719H808.705V252H767.863ZM884.334 149.841L940.147 252H894.571L839.749 149.841H884.334ZM988.626 26.5454V252H947.784V26.5454H988.626ZM1011.15 252V26.5454H1051.99V130.136H1054.75L1142.7 26.5454H1192.57L1105.39 127.714L1193.34 252H1144.25L1076.98 155.345L1051.99 184.848V252H1011.15ZM1320.56 88.5234C1319.53 78.9093 1315.2 71.4235 1307.57 66.066C1300.01 60.7086 1290.18 58.0298 1278.07 58.0298C1269.56 58.0298 1262.25 59.3142 1256.16 61.8828C1250.07 64.4515 1245.41 67.9375 1242.18 72.3409C1238.95 76.7443 1237.3 81.7715 1237.23 87.4226C1237.23 92.1196 1238.29 96.1927 1240.42 99.642C1242.62 103.091 1245.59 106.027 1249.34 108.449C1253.08 110.797 1257.23 112.779 1261.78 114.393C1266.33 116.008 1270.91 117.366 1275.54 118.467L1296.67 123.751C1305.19 125.732 1313.37 128.411 1321.22 131.787C1329.15 135.163 1336.23 139.42 1342.47 144.557C1348.78 149.694 1353.77 155.896 1357.44 163.161C1361.11 170.427 1362.94 178.94 1362.94 188.701C1362.94 201.911 1359.57 213.544 1352.82 223.598C1346.06 233.579 1336.3 241.395 1323.53 247.046C1310.84 252.624 1295.46 255.413 1277.41 255.413C1259.87 255.413 1244.64 252.697 1231.72 247.266C1218.88 241.835 1208.83 233.909 1201.56 223.488C1194.37 213.067 1190.48 200.37 1189.89 185.398H1230.07C1230.66 193.251 1233.08 199.783 1237.34 204.994C1241.59 210.204 1247.13 214.094 1253.96 216.663C1260.86 219.231 1268.56 220.516 1277.08 220.516C1285.96 220.516 1293.74 219.195 1300.42 216.553C1307.17 213.837 1312.45 210.094 1316.27 205.324C1320.08 200.48 1322.03 194.829 1322.1 188.371C1322.03 182.5 1320.3 177.656 1316.93 173.839C1313.55 169.95 1308.82 166.721 1302.73 164.152C1296.71 161.51 1289.66 159.161 1281.59 157.107L1255.94 150.501C1237.37 145.731 1222.7 138.502 1211.91 128.815C1201.19 119.054 1195.84 106.1 1195.84 89.9545C1195.84 76.6709 1199.43 65.0386 1206.62 55.0575C1213.89 45.0765 1223.76 37.3338 1236.24 31.8295C1248.71 26.2519 1262.84 23.4631 1278.62 23.4631C1294.62 23.4631 1308.64 26.2519 1320.67 31.8295C1332.78 37.3338 1342.29 45.0031 1349.18 54.8373C1356.08 64.5982 1359.64 75.8269 1359.86 88.5234H1320.56ZM1377.66 252V26.5454H1418.5V121.989H1522.97V26.5454H1563.92V252H1522.97V156.226H1418.5V252H1377.66ZM1615.59 252H1572L1651.37 26.5454H1701.79L1781.27 252H1737.68L1677.46 72.7812H1675.7L1615.59 252ZM1617.02 163.602H1735.91V196.407H1617.02V163.602Z" fill="black"/>
<path d="M213.193 23.9188C214.072 22.2188 215.859 21.1431 217.794 21.1486L260.915 21.2712C264.656 21.2819 267.026 25.1255 265.313 28.4055L149.757 249.726C147.825 253.426 142.416 253.388 140.663 249.661L121.626 209.203C120.344 206.48 120.414 203.313 121.816 200.604L213.193 23.9188Z" fill="#F47200"/>
<path d="M114.888 21.1951C118.98 21.1951 121.339 25.8418 118.925 29.1453L95.6065 61.0521C94.6656 62.3395 93.1671 63.1009 91.5725 63.1018L10.4684 63.1482C6.67507 63.1504 4.26099 59.0932 6.07251 55.7604L22.0206 26.4195C23.7708 23.1997 27.1419 21.1951 30.8066 21.1951L114.888 21.1951Z" fill="#578EE0"/>
<path d="M24.063 119.072C19.8598 119.072 17.5323 123.943 20.1729 127.213L45.9464 159.132C46.8956 160.307 48.3256 160.991 49.8365 160.991L118.276 160.991C122.516 160.991 124.831 156.045 122.116 152.788L96.9984 122.668C95.0984 120.389 92.2849 119.072 89.3183 119.072L24.063 119.072Z" fill="#578EE0"/>
<path d="M141.896 150.728C141.896 155.37 136.119 157.506 133.099 153.981L99.7328 115.041C98.9564 114.135 98.5296 112.981 98.5296 111.788V70.248C98.5296 69.1999 98.859 68.1784 99.4711 67.3277L123.778 33.5469C129.45 25.6648 141.896 29.677 141.896 39.3876L141.896 150.728Z" fill="#578EE0"/>
<path d="M1.44241e-06 130.641C9.47114e-07 125.999 5.77617 123.863 8.79683 127.388L42.1627 166.328C42.9392 167.234 43.3659 168.388 43.3659 169.582V211.121C43.3659 212.169 43.0366 213.191 42.4244 214.041L18.117 247.822C12.4454 255.704 1.43571e-05 251.692 1.33211e-05 241.981L1.44241e-06 130.641Z" fill="#578EE0"/>
</svg>
