<svg width="2493" height="256" viewBox="0 0 2493 256" fill="none" xmlns="http://www.w3.org/2000/svg">
<path d="M0 53.2794C0 51.4837 0.96303 49.8258 2.52296 48.9361L40.523 27.2643C43.8562 25.3633 48 27.7703 48 31.6076V232.533C48 236.551 43.4998 238.928 40.181 236.662L4.36196 212.211C1.63262 210.347 0 207.256 0 203.952V53.2794Z" fill="#F47200"/>
<path d="M113 100.603C113 102.776 111.596 104.7 109.527 105.364L73.5267 116.907C70.2998 117.942 67 115.535 67 112.146V8.27469C67 4.76728 70.5171 2.34991 73.7916 3.6067L106.583 16.1925C110.449 17.6761 113 21.3882 113 25.5285V100.603Z" fill="#578EE0"/>
<path d="M1885.69 124.273C1885.69 148.565 1881.14 169.371 1872.04 186.691C1863.02 203.938 1850.69 217.148 1835.05 226.322C1819.5 235.496 1801.84 240.082 1782.1 240.082C1762.36 240.082 1744.67 235.496 1729.04 226.322C1713.48 217.075 1701.15 203.828 1692.05 186.581C1683.03 169.261 1678.51 148.491 1678.51 124.273C1678.51 99.9806 1683.03 79.2112 1692.05 61.9645C1701.15 44.6444 1713.48 31.3975 1729.04 22.2237C1744.67 13.0499 1762.36 8.46306 1782.1 8.46306C1801.84 8.46306 1819.5 13.0499 1835.05 22.2237C1850.69 31.3975 1863.02 44.6444 1872.04 61.9645C1881.14 79.2112 1885.69 99.9806 1885.69 124.273ZM1844.63 124.273C1844.63 107.173 1841.95 92.7517 1836.6 81.0092C1831.31 69.1934 1823.97 60.2765 1814.58 54.2585C1805.18 48.1671 1794.36 45.1215 1782.1 45.1215C1769.85 45.1215 1759.02 48.1671 1749.63 54.2585C1740.23 60.2765 1732.86 69.1934 1727.5 81.0092C1722.22 92.7517 1719.57 107.173 1719.57 124.273C1719.57 141.373 1722.22 155.83 1727.5 167.646C1732.86 179.389 1740.23 188.306 1749.63 194.397C1759.02 200.415 1769.85 203.424 1782.1 203.424C1794.36 203.424 1805.18 200.415 1814.58 194.397C1823.97 188.306 1831.31 179.389 1836.6 167.646C1841.95 155.83 1844.63 141.373 1844.63 124.273ZM2053.64 83.5412C2051.81 77.5966 2049.28 72.2758 2046.05 67.5788C2042.89 62.8085 2039.07 58.7353 2034.6 55.3594C2030.19 51.9834 2025.13 49.4515 2019.41 47.7635C2013.68 46.0021 2007.44 45.1215 2000.69 45.1215C1988.58 45.1215 1977.79 48.1671 1968.33 54.2585C1958.86 60.3499 1951.41 69.3035 1945.98 81.1193C1940.62 92.8617 1937.94 107.173 1937.94 124.053C1937.94 141.079 1940.62 155.5 1945.98 167.316C1951.34 179.132 1958.79 188.122 1968.33 194.287C1977.87 200.378 1988.95 203.424 2001.57 203.424C2013.02 203.424 2022.93 201.222 2031.3 196.819C2039.74 192.415 2046.23 186.177 2050.78 178.104C2055.33 169.958 2057.61 160.417 2057.61 149.482L2066.85 150.913H2005.65V118.989H2097.13V146.07C2097.13 165.371 2093.02 182.067 2084.8 196.158C2076.58 210.249 2065.27 221.111 2050.89 228.744C2036.51 236.303 2019.99 240.082 2001.35 240.082C1980.58 240.082 1962.35 235.422 1946.64 226.102C1931.01 216.708 1918.79 203.387 1909.98 186.141C1901.25 168.821 1896.88 148.271 1896.88 124.493C1896.88 106.292 1899.45 90.0362 1904.59 75.7251C1909.8 61.4141 1917.06 49.268 1926.38 39.2869C1935.7 29.2325 1946.64 21.5999 1959.19 16.3892C1971.74 11.1051 1985.39 8.46306 2000.14 8.46306C2012.62 8.46306 2024.25 10.2978 2035.04 13.9673C2045.83 17.5634 2055.4 22.7008 2063.77 29.3793C2072.21 36.0578 2079.15 43.9839 2084.58 53.1577C2090.01 62.3314 2093.57 72.4593 2095.25 83.5412H2053.64ZM2091.03 11.5454H2137.16L2192.31 111.283H2194.51L2249.66 11.5454H2295.79L2213.78 152.895V237H2173.04V152.895L2091.03 11.5454ZM2308.96 237H2265.37L2344.74 11.5454H2395.16L2474.64 237H2431.04L2370.83 57.7812H2369.07L2308.96 237ZM2310.39 148.602H2429.28V181.407H2310.39V148.602Z" fill="black"/>
<path d="M1556 133.759C1556 132.621 1556.39 131.516 1557.1 130.628L1653.1 11.0812C1656.06 7.39961 1662 9.49015 1662 14.2119V61.0744C1662 62.1878 1661.63 63.2694 1660.94 64.1476L1594.71 149.145C1594.03 150.023 1593.66 151.105 1593.66 152.218V211.248C1593.66 212.462 1593.22 213.635 1592.41 214.548L1573.51 236.064C1567.43 242.994 1556 238.688 1556 229.464V133.759Z" fill="#F47200"/>
<path d="M1548 133.759C1548 132.621 1547.61 131.516 1546.9 130.628L1450.9 11.0812C1447.94 7.39961 1442 9.49015 1442 14.2119V61.0744C1442 62.1878 1442.37 63.2694 1443.06 64.1476L1509.29 149.145C1509.97 150.023 1510.34 151.105 1510.34 152.218V211.248C1510.34 212.462 1510.78 213.635 1511.59 214.548L1530.49 236.064C1536.57 242.994 1548 238.688 1548 229.464V133.759Z" fill="#578EE0"/>
<path d="M164.19 236H120.596L199.967 10.5454H250.386L329.868 236H286.274L226.058 56.7812H224.296L164.19 236ZM165.621 147.602H284.513V180.407H165.621V147.602ZM337.863 236V10.5454H422.409C439.729 10.5454 454.26 13.5544 466.003 19.5724C477.818 25.5904 486.735 34.0303 492.753 44.892C498.845 55.6804 501.89 68.2668 501.89 82.6513C501.89 97.1091 498.808 109.659 492.643 120.3C486.552 130.869 477.562 139.052 465.672 144.849C453.783 150.574 439.178 153.436 421.858 153.436H361.642V119.53H416.354C426.482 119.53 434.775 118.135 441.233 115.347C447.692 112.484 452.462 108.338 455.545 102.907C458.7 97.4027 460.278 90.6508 460.278 82.6513C460.278 74.6517 458.7 67.8265 455.545 62.1754C452.389 56.451 447.582 52.121 441.123 49.1854C434.665 46.1764 426.335 44.6719 416.134 44.6719H378.705V236H337.863ZM454.334 133.841L510.147 236H464.571L409.749 133.841H454.334ZM558.626 10.5454V236H517.784V10.5454H558.626ZM581.153 236V10.5454H621.994V114.136H624.747L712.705 10.5454H762.573L675.386 111.714L763.344 236H714.246L646.984 139.345L621.994 168.848V236H581.153ZM890.562 72.5234C889.534 62.9093 885.204 55.4235 877.572 50.066C870.012 44.7086 860.178 42.0298 848.069 42.0298C839.556 42.0298 832.253 43.3142 826.162 45.8828C820.07 48.4515 815.41 51.9375 812.181 56.3409C808.952 60.7443 807.301 65.7715 807.227 71.4226C807.227 76.1196 808.291 80.1927 810.42 83.642C812.621 87.0914 815.594 90.027 819.337 92.4489C823.079 94.7973 827.226 96.7789 831.776 98.3935C836.326 100.008 840.913 101.366 845.537 102.467L866.673 107.751C875.186 109.732 883.369 112.411 891.222 115.787C899.148 119.163 906.23 123.42 912.469 128.557C918.78 133.694 923.771 139.896 927.44 147.161C931.11 154.427 932.945 162.94 932.945 172.701C932.945 185.911 929.569 197.544 922.817 207.598C916.065 217.579 906.304 225.395 893.534 231.046C880.838 236.624 865.462 239.413 847.408 239.413C829.868 239.413 814.64 236.697 801.723 231.266C788.88 225.835 778.825 217.909 771.56 207.488C764.367 197.067 760.478 184.37 759.891 169.398H800.072C800.659 177.251 803.081 183.783 807.337 188.994C811.594 194.204 817.135 198.094 823.96 200.663C830.859 203.231 838.565 204.516 847.078 204.516C855.958 204.516 863.738 203.195 870.416 200.553C877.168 197.837 882.452 194.094 886.268 189.324C890.085 184.48 892.03 178.829 892.103 172.371C892.03 166.5 890.305 161.656 886.929 157.839C883.553 153.95 878.819 150.721 872.728 148.152C866.71 145.51 859.664 143.161 851.592 141.107L825.942 134.501C807.374 129.731 792.696 122.502 781.908 112.815C771.193 103.054 765.835 90.1004 765.835 73.9545C765.835 60.6709 769.431 49.0386 776.623 39.0575C783.889 29.0765 793.76 21.3338 806.236 15.8295C818.713 10.2519 832.84 7.46306 848.619 7.46306C864.618 7.46306 878.636 10.2519 890.672 15.8295C902.781 21.3338 912.285 29.0031 919.184 38.8373C926.083 48.5982 929.642 59.8269 929.862 72.5234H890.562ZM947.655 236V10.5454H988.497V105.989H1092.97V10.5454H1133.92V236H1092.97V140.226H988.497V236H947.655ZM1185.59 236H1142L1221.37 10.5454H1271.79L1351.27 236H1307.68L1247.46 56.7812H1245.7L1185.59 236ZM1187.02 147.602H1305.91V180.407H1187.02V147.602Z" fill="black"/>
</svg>
